<svg width="83" height="83" viewBox="0 0 83 83" fill="none" xmlns="http://www.w3.org/2000/svg">
<g clip-path="url(#clip0_16_63)">
<path d="M49.2812 38.9062C49.2806 40.9707 48.4598 42.9502 46.9996 44.4095C45.5393 45.8688 43.5592 46.6882 41.4948 46.6875C39.4304 46.6868 37.4508 45.8661 35.9916 44.4058C34.5323 42.9456 33.7129 40.9655 33.7136 38.9011C33.7143 36.8367 34.535 34.8571 35.9952 33.3978C37.4555 31.9385 39.4356 31.1191 41.5 31.1198C43.5644 31.1205 45.544 31.9412 47.0032 33.4015C48.4625 34.8617 49.2819 36.8418 49.2812 38.9062ZM74.0256 20.75H60.8494C58.4692 20.75 56.1866 21.6955 54.5035 23.3785C52.8205 25.0616 51.875 27.3442 51.875 29.7244V46.6875C51.875 48.0633 52.4215 49.3828 53.3944 50.3556C54.3672 51.3285 55.6867 51.875 57.0625 51.875V83H77.8125V51.875C79.1883 51.875 80.5078 51.3285 81.4806 50.3556C82.4535 49.3828 83 48.0633 83 46.6875V29.7244C83 27.3442 82.0545 25.0616 80.3715 23.3785C78.6884 21.6955 76.4058 20.75 74.0256 20.75Z" fill="#E1BA20"/>
<path d="M77.8125 10.3749C77.8437 11.7566 77.5986 13.1305 77.0916 14.4161C76.5845 15.7017 75.8257 16.8731 74.8598 17.8614C73.8938 18.8497 72.7401 19.6351 71.4664 20.1714C70.1927 20.7077 68.8247 20.9841 67.4427 20.9845C66.0608 20.9848 64.6926 20.7091 63.4187 20.1734C62.1447 19.6377 60.9907 18.8529 60.0242 17.8651C59.0577 16.8773 58.2983 15.7063 57.7906 14.421C57.2829 13.1356 57.0371 11.7618 57.0677 10.3801C57.1276 7.66934 58.2464 5.08974 60.1845 3.19352C62.1227 1.29731 64.7261 0.235175 67.4376 0.234497C70.149 0.233819 72.753 1.29465 74.6921 3.18989C76.6311 5.08514 77.7512 7.66418 77.8125 10.3749ZM22.1506 25.9374H8.97438C7.7955 25.9378 6.62824 26.1703 5.53924 26.6218C4.45023 27.0732 3.46081 27.7347 2.62746 28.5686C1.79411 29.4024 1.13316 30.3922 0.682339 31.4815C0.231519 32.5707 -0.000340241 33.7381 3.74745e-07 34.917C0.000340991 36.0959 0.232874 37.2631 0.684324 38.3521C1.13577 39.4412 1.7973 40.4306 2.63113 41.2639C3.46496 42.0973 4.45476 42.7582 5.54403 43.209C6.63329 43.6599 7.80069 43.8917 8.97956 43.8914C11.3604 43.8907 13.6435 42.9442 15.3265 41.2603C17.0095 39.5763 17.9546 37.2927 17.9539 34.9118C17.9532 32.531 17.0068 30.2479 15.3228 28.5649C13.6388 26.8819 11.3552 25.9368 8.97438 25.9374C6.59422 25.9374 4.31048 26.8855 2.62746 28.5686C0.944438 30.2516 3.74745e-07 32.5368 3.74745e-07 34.917L5.63921e-07 46.6874C5.63921e-07 48.0633 0.546539 49.3827 1.51938 50.3556C2.49223 51.3284 3.81169 51.8749 5.1875 51.8749L5.63921e-07 67.4374H5.1875V82.9999H25.9375V67.4374H31.125L25.9375 51.8749C27.3133 51.8749 28.6328 51.3284 29.6056 50.3556C30.5785 49.3827 31.125 48.0633 31.125 46.6874V34.9118C31.125 33.7333 30.8929 32.5663 30.4419 31.4775C29.9909 30.3887 29.3298 29.3993 28.4965 28.566C27.6631 27.7326 26.6738 27.0716 25.585 26.6206C24.4961 26.1696 23.3292 25.9374 22.1506 25.9374Z" fill="#E1BA20"/>
<path d="M25.9375 15.5624C25.9687 16.9441 25.7236 18.318 25.2166 19.6036C24.7095 20.8892 23.9507 22.0606 22.9848 23.0489C22.0188 24.0372 20.8651 24.8226 19.5914 25.3589C18.3177 25.8952 16.9497 26.1716 15.5677 26.172C14.1858 26.1723 12.8176 25.8966 11.5437 25.3609C10.2697 24.8252 9.11565 24.0404 8.14917 23.0526C7.1827 22.0648 6.42332 20.8938 5.91562 19.6085C5.40792 18.3231 5.16213 16.9493 5.19269 15.5676C5.25263 12.8568 6.37141 10.2772 8.30954 8.38102C10.2477 6.48481 12.8511 5.42268 15.5626 5.422C18.274 5.42132 20.878 6.48215 22.8171 8.37739C24.7561 10.2726 25.8762 12.8517 25.9375 15.5624ZM36.3125 67.4374V82.9999H46.6875V67.4374C48.0633 67.4374 49.3828 66.8909 50.3556 65.9181C51.3285 64.9452 51.875 63.6258 51.875 62.2499V54.2612C51.875 52.2525 51.077 50.3261 49.6567 48.9057C48.2363 47.4854 46.3099 46.6874 44.3012 46.6874H38.6987C36.6901 46.6874 34.7637 47.4854 33.3433 48.9057C31.9229 50.3261 31.125 52.2525 31.125 54.2612V62.2499C31.125 63.6258 31.6715 64.9452 32.6444 65.9181C33.6172 66.8909 34.9367 67.4374 36.3125 67.4374Z" fill="#E1BA20"/>
</g>
<defs>
<clipPath id="clip0_16_63">
<rect width="83" height="83" fill="white"/>
</clipPath>
</defs>
</svg>
