<svg width="74" height="74" viewBox="0 0 74 74" fill="none" xmlns="http://www.w3.org/2000/svg">
<g clip-path="url(#clip0_79_4)">
<path fill-rule="evenodd" clip-rule="evenodd" d="M37 6.16663C37.8177 6.16663 38.602 6.49148 39.1802 7.06971C39.7585 7.64795 40.0833 8.43221 40.0833 9.24996V12.2161L42.0998 11.1493C42.8227 10.767 43.6679 10.6875 44.4494 10.9284C45.2308 11.1692 45.8846 11.7106 46.2669 12.4335C46.6492 13.1564 46.7287 14.0015 46.4879 14.783C46.247 15.5645 45.7056 16.2183 44.9827 16.6006L40.0833 19.1906V25.0551C42.2879 25.6225 44.252 26.7818 45.7998 28.3574L50.8812 25.4251L50.6746 19.8875C50.6439 19.0701 50.9392 18.2741 51.4954 17.6744C52.0517 17.0748 52.8234 16.7207 53.6407 16.69C54.4581 16.6594 55.2541 16.9547 55.8538 17.5109C56.4534 18.0672 56.8075 18.8389 56.8382 19.6562L56.9214 21.9379L59.4898 20.4548C59.8406 20.2491 60.2286 20.1149 60.6315 20.0598C61.0344 20.0047 61.4442 20.0299 61.8373 20.1338C62.2304 20.2378 62.5991 20.4184 62.9221 20.6654C63.2451 20.9124 63.5161 21.2209 63.7194 21.573C63.9227 21.9252 64.0544 22.3141 64.1068 22.7173C64.1592 23.1205 64.1314 23.5302 64.0248 23.9226C63.9183 24.315 63.7352 24.6825 63.486 25.0039C63.2369 25.3252 62.9266 25.5941 62.5732 25.7951L60.0047 27.2751L61.938 28.49C62.2809 28.7054 62.5781 28.9862 62.8125 29.3165C63.047 29.6467 63.214 30.0199 63.3042 30.4148C63.3944 30.8096 63.4059 31.2183 63.3382 31.6176C63.2704 32.0169 63.1247 32.3989 62.9092 32.7419C62.6938 33.0848 62.413 33.382 62.0827 33.6164C61.7525 33.8508 61.3793 34.0179 60.9844 34.1081C60.5896 34.1983 60.1809 34.2098 59.7816 34.1421C59.3823 34.0743 59.0003 33.9285 58.6573 33.7131L53.9645 30.7655L48.8862 33.6946C49.4871 35.8562 49.4871 38.1407 48.8862 40.3022L53.9645 43.2345L58.6573 40.2868C59.35 39.8518 60.187 39.7097 60.9844 39.8918C61.7818 40.074 62.4742 40.5654 62.9092 41.258C63.3443 41.9507 63.4864 42.7878 63.3042 43.5852C63.1221 44.3825 62.6306 45.0749 61.938 45.51L60.0078 46.7217L62.5732 48.2048C62.9266 48.4058 63.2369 48.6747 63.486 48.9961C63.7352 49.3174 63.9183 49.6849 64.0248 50.0773C64.1314 50.4698 64.1592 50.8794 64.1068 51.2826C64.0544 51.6859 63.9227 52.0747 63.7194 52.4269C63.5161 52.779 63.2451 53.0875 62.9221 53.3345C62.5991 53.5815 62.2304 53.7622 61.8373 53.8661C61.4442 53.97 61.0344 53.9952 60.6315 53.9401C60.2286 53.885 59.8406 53.7508 59.4898 53.5451L56.9245 52.0651L56.8382 54.3437C56.8075 55.1611 56.4534 55.9327 55.8538 56.489C55.2541 57.0453 54.4581 57.3405 53.6407 57.3099C52.8234 57.2792 52.0517 56.9251 51.4954 56.3255C50.9392 55.7259 50.6439 54.9298 50.6746 54.1125L50.8812 48.5748L45.7998 45.6425C44.252 47.215 42.2848 48.3775 40.0833 48.9448V54.8093L44.9827 57.3993C45.7056 57.7816 46.247 58.4354 46.4879 59.2169C46.7287 59.9984 46.6492 60.8435 46.2669 61.5664C45.8846 62.2893 45.2308 62.8307 44.4494 63.0716C43.6679 63.3124 42.8227 63.2329 42.0998 62.8506L40.0833 61.7838V64.75C40.0833 65.5677 39.7585 66.352 39.1802 66.9302C38.602 67.5084 37.8177 67.8333 37 67.8333C36.1822 67.8333 35.398 67.5084 34.8197 66.9302C34.2415 66.352 33.9167 65.5677 33.9167 64.75V61.7838L31.9002 62.8506C31.5422 63.0399 31.1505 63.1569 30.7474 63.1948C30.3442 63.2327 29.9376 63.1908 29.5506 63.0716C29.1637 62.9523 28.804 62.758 28.4921 62.4998C28.1803 62.2415 27.9223 61.9244 27.733 61.5664C27.5437 61.2085 27.4268 60.8168 27.3889 60.4136C27.351 60.0105 27.3928 59.6038 27.5121 59.2169C27.6313 58.8299 27.8256 58.4703 28.0839 58.1584C28.3421 57.8465 28.6593 57.5886 29.0172 57.3993L33.9167 54.8093V48.9448C31.7459 48.3837 29.7694 47.2408 28.2002 45.6395L23.1188 48.5748L23.3254 54.1125C23.3404 54.5172 23.2755 54.9209 23.1345 55.3005C22.9934 55.6801 22.779 56.0283 22.5034 56.325C22.2279 56.6218 21.8965 56.8614 21.5284 57.0301C21.1602 57.1988 20.7624 57.2934 20.3577 57.3083C19.953 57.3233 19.5493 57.2584 19.1697 57.1174C18.79 56.9764 18.4419 56.7619 18.1451 56.4864C17.8484 56.2108 17.6088 55.8795 17.4401 55.5113C17.2714 55.1431 17.1768 54.7453 17.1618 54.3406L17.0786 52.062L14.5102 53.542C14.1592 53.7592 13.7681 53.9037 13.3603 53.9669C12.9524 54.0301 12.536 54.0108 12.1357 53.9101C11.7355 53.8094 11.3595 53.6294 11.0301 53.3807C10.7007 53.132 10.4246 52.8197 10.2181 52.4623C10.0117 52.1049 9.87905 51.7097 9.82816 51.3001C9.77726 50.8905 9.80912 50.4749 9.92184 50.0779C10.0346 49.6808 10.2259 49.3104 10.4844 48.9887C10.7429 48.667 11.0634 48.4004 11.4268 48.2048L13.9952 46.7217L12.062 45.5069C11.3877 45.0637 10.914 44.3739 10.7425 43.5854C10.571 42.797 10.7155 41.9727 11.1448 41.2895C11.5742 40.6064 12.2542 40.1187 13.0391 39.9313C13.8239 39.7438 14.6509 39.8714 15.3427 40.2868L20.0355 43.2345L25.1137 40.3022C24.5139 38.1416 24.5139 35.8584 25.1137 33.6977L20.0355 30.7685L15.3427 33.7131C14.6509 34.1285 13.8239 34.2561 13.0391 34.0687C12.2542 33.8812 11.5742 33.3936 11.1448 32.7104C10.7155 32.0272 10.571 31.203 10.7425 30.4145C10.914 29.626 11.3877 28.9362 12.062 28.493L13.9952 27.2782L11.4268 25.7982C10.7182 25.3893 10.2011 24.7157 9.98918 23.9256C9.77726 23.1354 9.8879 22.2934 10.2968 21.5848C10.7057 20.8763 11.3793 20.3591 12.1694 20.1472C12.9596 19.9353 13.8016 20.0459 14.5102 20.4548L17.0786 21.9379L17.1618 19.6562C17.1925 18.8389 17.5466 18.0672 18.1462 17.5109C18.4431 17.2355 18.7914 17.0212 19.1711 16.8804C19.5508 16.7395 19.9545 16.6749 20.3592 16.69C20.7639 16.7052 21.1617 16.8 21.5298 16.9689C21.8979 17.1378 22.2291 17.3775 22.5045 17.6744C22.78 17.9713 22.9942 18.3196 23.1351 18.6993C23.2759 19.079 23.3406 19.4828 23.3254 19.8875L23.1188 25.4251L28.2002 28.3605C29.7694 26.7591 31.7459 25.6163 33.9167 25.0551V19.1906L29.0172 16.6006C28.2943 16.2183 27.7529 15.5645 27.5121 14.783C27.2713 14.0015 27.3507 13.1564 27.733 12.4335C28.1153 11.7106 28.7691 11.1692 29.5506 10.9284C30.3321 10.6875 31.1773 10.767 31.9002 11.1493L33.9167 12.2161V9.24996C33.9167 8.43221 34.2415 7.64795 34.8197 7.06971C35.398 6.49148 36.1822 6.16663 37 6.16663ZM37 43.1666C38.6355 43.1666 40.204 42.5169 41.3605 41.3605C42.517 40.204 43.1667 38.6355 43.1667 37C43.1667 35.3645 42.517 33.7959 41.3605 32.6395C40.204 31.483 38.6355 30.8333 37 30.8333C35.3645 30.8333 33.796 31.483 32.6395 32.6395C31.483 33.7959 30.8333 35.3645 30.8333 37C30.8333 38.6355 31.483 40.204 32.6395 41.3605C33.796 42.5169 35.3645 43.1666 37 43.1666Z" fill="#E1BA20"/>
</g>
<defs>
<clipPath id="clip0_79_4">
<rect width="74" height="74" fill="white"/>
</clipPath>
</defs>
</svg>
