<svg width="83" height="83" viewBox="0 0 83 83" fill="none" xmlns="http://www.w3.org/2000/svg">
<path d="M13.8333 76.0833V55.8002C13.8333 51.5672 15.325 47.959 18.3084 44.9756C21.2918 41.9922 24.9 40.5017 29.133 40.504H33.5873V12.571C33.5873 11.0148 34.1199 9.68329 35.1851 8.57663C36.2526 7.46996 37.5598 6.91663 39.1068 6.91663H43.8932C45.4402 6.91663 46.7474 7.46996 47.8149 8.57663C48.8801 9.68329 49.4127 11.0148 49.4127 12.571V40.504H53.8047C58.0539 40.504 61.6771 41.9945 64.6743 44.9756C67.6692 47.9613 69.1667 51.5695 69.1667 55.8002V76.0833H13.8333ZM17.2917 72.625H26.8021V60.4516C26.8021 59.9628 26.9681 59.5536 27.3001 59.2239C27.6321 58.8919 28.0436 58.7259 28.5347 58.7259C29.0235 58.7259 29.4339 58.8919 29.7659 59.2239C30.0956 59.5536 30.2604 59.964 30.2604 60.4551V72.625H39.7708V60.4516C39.7708 59.9628 39.9368 59.5536 40.2688 59.2239C40.6008 58.8919 41.0124 58.7259 41.5035 58.7259C41.9945 58.7259 42.4049 58.8919 42.7346 59.2239C43.0643 59.5536 43.2292 59.964 43.2292 60.4551V72.625H52.7396V60.4516C52.7396 59.9628 52.9056 59.5536 53.2376 59.2239C53.5696 58.8942 53.9811 58.7282 54.4722 58.7259C54.961 58.7259 55.3714 58.8919 55.7034 59.2239C56.0331 59.5536 56.1979 59.964 56.1979 60.4551V72.625H65.7083V55.8002C65.7083 52.4733 64.5509 49.6685 62.2362 47.386C59.9214 45.1035 57.1109 43.9623 53.8047 43.9623H29.1295C25.8418 43.9623 23.0463 45.1128 20.7431 47.4137C18.4421 49.7147 17.2917 52.5101 17.2917 55.8002V72.625ZM45.9543 40.504V12.571C45.9543 11.9485 45.7549 11.4274 45.356 11.0078C44.9572 10.5859 44.4696 10.375 43.8932 10.375H39.1068C38.5304 10.375 38.0428 10.5859 37.644 11.0078C37.2451 11.4274 37.0457 11.9485 37.0457 12.571V40.504H45.9543Z" fill="#E1BA20"/>
</svg>
