<svg width="82" height="83" viewBox="0 0 82 83" fill="none" xmlns="http://www.w3.org/2000/svg">
<path fill-rule="evenodd" clip-rule="evenodd" d="M17.6218 16.4091L12.71 35.9017C10.8571 36.2835 9.1915 37.3018 7.99527 38.7842C6.79905 40.2665 6.14571 42.1217 6.1459 44.0357V56.0251C6.1459 58.2263 7.00983 60.3375 8.54763 61.894C10.0854 63.4506 12.1711 64.3251 14.3459 64.3251H67.6459C69.8207 64.3251 71.9064 63.4506 73.4442 61.894C74.982 60.3375 75.8459 58.2263 75.8459 56.0251V44.0357C75.8461 42.1217 75.1928 40.2665 73.9965 38.7842C72.8003 37.3018 71.1347 36.2835 69.2818 35.9017L64.3741 16.4091C64.0049 14.942 63.2463 13.605 62.1803 12.5428C61.1144 11.4807 59.7817 10.7339 58.3266 10.3833C52.6514 9.00589 46.8361 8.30668 41 8.30005C35.219 8.30005 29.438 8.99725 23.6652 10.3833C22.2101 10.7339 20.8774 11.4807 19.8115 12.5428C18.7455 13.605 17.991 14.942 17.6218 16.4091ZM14.35 39.8857C14.8056 39.8863 15.2485 39.7332 15.6086 39.4506C15.9687 39.168 16.2255 38.7721 16.3385 38.3253L21.5947 17.43C21.7795 16.6962 22.1591 16.0275 22.6924 15.4964C23.2258 14.9653 23.8926 14.5921 24.6205 14.4171C29.9857 13.1161 35.483 12.4559 41 12.45C46.453 12.45 51.9142 13.1057 57.3795 14.4213C58.1067 14.5969 58.7726 14.9705 59.3052 15.5015C59.8378 16.0325 60.2168 16.7009 60.4012 17.4342L65.6574 38.3253C65.7704 38.7721 66.0272 39.168 66.3873 39.4506C66.7474 39.7332 67.1903 39.8863 67.6459 39.8857C68.7333 39.8857 69.7761 40.3229 70.545 41.1012C71.3139 41.8795 71.7459 42.9351 71.7459 44.0357V56.0251C71.7459 57.1257 71.3139 58.1813 70.545 58.9595C69.7761 59.7378 68.7333 60.175 67.6459 60.175H14.3459C13.2585 60.175 12.2157 59.7378 11.4468 58.9595C10.6779 58.1813 10.2459 57.1257 10.2459 56.0251V44.0357C10.2459 42.9351 10.6779 41.8795 11.4468 41.1012C12.2157 40.3229 13.2626 39.8857 14.35 39.8857Z" fill="#E1BA20"/>
<path fill-rule="evenodd" clip-rule="evenodd" d="M22.55 66.4001C22.55 64.7491 21.9021 63.1657 20.7487 61.9983C19.5954 60.8309 18.0311 60.175 16.4 60.175C14.7689 60.175 13.2046 60.8309 12.0513 61.9983C10.8979 63.1657 10.25 64.7491 10.25 66.4001V70.55C10.25 72.201 10.8979 73.7844 12.0513 74.9518C13.2046 76.1192 14.7689 76.7751 16.4 76.7751C18.0311 76.7751 19.5954 76.1192 20.7487 74.9518C21.9021 73.7844 22.55 72.201 22.55 70.55V66.4001ZM14.35 66.4001C14.35 65.8497 14.566 65.3219 14.9504 64.9328C15.3349 64.5437 15.8563 64.3251 16.4 64.3251C16.9437 64.3251 17.4651 64.5437 17.8496 64.9328C18.234 65.3219 18.45 65.8497 18.45 66.4001V70.55C18.45 71.1004 18.234 71.6282 17.8496 72.0173C17.4651 72.4064 16.9437 72.625 16.4 72.625C15.8563 72.625 15.3349 72.4064 14.9504 72.0173C14.566 71.6282 14.35 71.1004 14.35 70.55V66.4001ZM71.75 66.4001C71.75 64.7491 71.1021 63.1657 69.9487 61.9983C68.7954 60.8309 67.2311 60.175 65.6 60.175C63.9689 60.175 62.4046 60.8309 61.2513 61.9983C60.0979 63.1657 59.45 64.7491 59.45 66.4001V70.55C59.45 72.201 60.0979 73.7844 61.2513 74.9518C62.4046 76.1192 63.9689 76.7751 65.6 76.7751C67.2311 76.7751 68.7954 76.1192 69.9487 74.9518C71.1021 73.7844 71.75 72.201 71.75 70.55V66.4001ZM63.55 66.4001C63.55 65.8497 63.766 65.3219 64.1504 64.9328C64.5349 64.5437 65.0563 64.3251 65.6 64.3251C66.1437 64.3251 66.6651 64.5437 67.0496 64.9328C67.434 65.3219 67.65 65.8497 67.65 66.4001V70.55C67.65 71.1004 67.434 71.6282 67.0496 72.0173C66.6651 72.4064 66.1437 72.625 65.6 72.625C65.0563 72.625 64.5349 72.4064 64.1504 72.0173C63.766 71.6282 63.55 71.1004 63.55 70.55V66.4001ZM61.5 56.0251C63.1311 56.0251 64.6954 55.3692 65.8487 54.2018C67.0021 53.0344 67.65 51.451 67.65 49.8001C67.65 48.1491 67.0021 46.5657 65.8487 45.3983C64.6954 44.2309 63.1311 43.5751 61.5 43.5751C59.8689 43.5751 58.3046 44.2309 57.1513 45.3983C55.9979 46.5657 55.35 48.1491 55.35 49.8001C55.35 51.451 55.9979 53.0344 57.1513 54.2018C58.3046 55.3692 59.8689 56.0251 61.5 56.0251ZM61.5 47.7251C62.0437 47.7251 62.5651 47.9437 62.9496 48.3328C63.334 48.7219 63.55 49.2497 63.55 49.8001C63.55 50.3504 63.334 50.8782 62.9496 51.2673C62.5651 51.6564 62.0437 51.875 61.5 51.875C60.9563 51.875 60.4349 51.6564 60.0504 51.2673C59.666 50.8782 59.45 50.3504 59.45 49.8001C59.45 49.2497 59.666 48.7219 60.0504 48.3328C60.4349 47.9437 60.9563 47.7251 61.5 47.7251ZM20.5 56.0251C22.1311 56.0251 23.6954 55.3692 24.8487 54.2018C26.0021 53.0344 26.65 51.451 26.65 49.8001C26.65 48.1491 26.0021 46.5657 24.8487 45.3983C23.6954 44.2309 22.1311 43.5751 20.5 43.5751C18.8689 43.5751 17.3046 44.2309 16.1513 45.3983C14.9979 46.5657 14.35 48.1491 14.35 49.8001C14.35 51.451 14.9979 53.0344 16.1513 54.2018C17.3046 55.3692 18.8689 56.0251 20.5 56.0251ZM20.5 47.7251C21.0437 47.7251 21.5651 47.9437 21.9496 48.3328C22.334 48.7219 22.55 49.2497 22.55 49.8001C22.55 50.3504 22.334 50.8782 21.9496 51.2673C21.5651 51.6564 21.0437 51.875 20.5 51.875C19.9563 51.875 19.4349 51.6564 19.0504 51.2673C18.666 50.8782 18.45 50.3504 18.45 49.8001C18.45 49.2497 18.666 48.7219 19.0504 48.3328C19.4349 47.9437 19.9563 47.7251 20.5 47.7251ZM51.8568 18.6751H30.1432C28.7667 18.675 27.4299 19.1423 26.3468 20.0023C25.2638 20.8623 24.4971 22.0652 24.1695 23.4185L22.1605 31.7185C21.9386 32.635 21.9255 33.5905 22.1221 34.5128C22.3187 35.4352 22.7199 36.3003 23.2953 37.0426C23.8707 37.785 24.6054 38.3852 25.4437 38.7979C26.282 39.2107 27.202 39.4251 28.1342 39.4251H53.8658C54.798 39.4251 55.718 39.2107 56.5563 38.7979C57.3946 38.3852 58.1293 37.785 58.7047 37.0426C59.2801 36.3003 59.6813 35.4352 59.8779 34.5128C60.0745 33.5905 60.0614 32.635 59.8395 31.7185L57.8305 23.4185C57.5027 22.0645 56.7354 20.8611 55.6515 20.001C54.5677 19.141 53.234 18.674 51.8568 18.6751ZM28.1506 24.4062C28.2599 23.9549 28.5156 23.5537 28.8769 23.267C29.2382 22.9804 29.6841 22.8247 30.1432 22.8251H51.8568C52.3152 22.8256 52.7601 22.9817 53.1206 23.2683C53.481 23.5549 53.7362 23.9556 53.8453 24.4062L55.8543 32.7062C55.9282 33.0115 55.9326 33.3297 55.8672 33.637C55.8019 33.9442 55.6684 34.2324 55.4769 34.4798C55.2854 34.7272 55.0408 34.9273 54.7618 35.0651C54.4827 35.2029 54.1763 35.2747 53.8658 35.2751H28.1342C27.8233 35.2753 27.5165 35.204 27.2369 35.0665C26.9573 34.929 26.7123 34.7289 26.5203 34.4814C26.3283 34.234 26.1945 33.9455 26.1289 33.638C26.0633 33.3304 26.0676 33.0118 26.1416 32.7062L28.1506 24.4062Z" fill="#E1BA20"/>
</svg>
