<svg width="83" height="83" viewBox="0 0 83 83" fill="none" xmlns="http://www.w3.org/2000/svg">
<path d="M72.625 20.75H10.375C9.45778 20.75 8.57814 21.1144 7.92958 21.7629C7.28102 22.4115 6.91666 23.2911 6.91666 24.2083V69.1667C6.91666 70.0839 7.28102 70.9635 7.92958 71.6121C8.57814 72.2606 9.45778 72.625 10.375 72.625H72.625C73.5422 72.625 74.4218 72.2606 75.0704 71.6121C75.719 70.9635 76.0833 70.0839 76.0833 69.1667V24.2083C76.0833 23.2911 75.719 22.4115 75.0704 21.7629C74.4218 21.1144 73.5422 20.75 72.625 20.75Z" stroke="#E1BA20" stroke-width="4" stroke-linejoin="round"/>
<path d="M53.6041 32.8542H19.0208V60.5209H53.6041V32.8542Z" stroke="#E1BA20" stroke-width="4" stroke-linejoin="round"/>
<path d="M24.2083 7.78129L39.9264 20.75L58.7916 3.45837M65.7083 31.125V32.8542M65.7083 43.2292V44.9584" stroke="#E1BA20" stroke-width="4" stroke-linecap="round" stroke-linejoin="round"/>
</svg>
