<svg width="82" height="83" viewBox="0 0 82 83" fill="none" xmlns="http://www.w3.org/2000/svg">
<g clip-path="url(#clip0_16_60)">
<path d="M5.66616 35.2957V56.2864C5.66562 59.0428 6.20152 61.7722 7.24324 64.3189C8.28497 66.8656 9.81211 69.1796 11.7375 71.1288C13.6628 73.0781 15.9487 74.6243 18.4645 75.6792C20.9803 76.7341 23.6767 77.2771 26.3999 77.2771H41.4756C44.1987 77.2771 46.8952 76.7341 49.4109 75.6792C51.9267 74.6243 54.2126 73.0781 56.138 71.1288C58.0633 69.1796 59.5905 66.8656 60.6322 64.3189C61.6739 61.7722 62.2098 59.0428 62.2093 56.2864V35.2999L5.66616 35.2957ZM48.7367 0.663968C49.3119 1.15156 49.6722 1.85047 49.7383 2.60695C49.8044 3.36343 49.571 4.11552 49.0893 4.69777C46.4571 7.87252 45.8749 10.0388 46.6867 11.4913C46.9409 11.9437 49.118 15.4255 49.6182 16.5004C50.7498 18.9281 50.8974 21.2812 49.9216 24.0617C49.2039 26.0587 48.1633 27.9211 46.8425 29.5729H62.7546C64.5463 29.6393 65.846 30.0999 66.6496 30.9631C67.1006 31.4362 67.4204 32.0338 67.6213 32.7559L67.8673 32.7476C71.6171 32.7476 75.2134 34.2554 77.8649 36.9393C80.5165 39.6232 82.0061 43.2633 82.0061 47.0589C82.0061 50.8545 80.5165 54.4946 77.8649 57.1785C75.2134 59.8624 71.6171 61.3702 67.8673 61.3702L67.3917 61.3536C66.228 67.446 63.0056 72.9386 58.2774 76.8884C53.5492 80.8382 47.6102 82.999 41.4797 83H26.3958C22.9301 83 19.4985 82.309 16.2967 80.9664C13.095 79.6239 10.1858 77.6561 7.73546 75.1755C5.28509 72.6949 3.34148 69.75 2.01562 66.5089C0.68976 63.2679 0.00762184 59.7943 0.00816031 56.2864V34.5985C-0.0738397 32.8016 0.26236 31.5275 1.00856 30.7805C1.75886 30.0335 2.86586 29.631 4.32546 29.577H16.4328C16.5904 29.311 16.7899 29.0727 17.0232 28.8715C19.5242 26.726 21.156 24.485 21.976 22.1485C22.4434 20.8205 22.3901 20.032 21.8858 18.9489C21.566 18.26 19.5529 15.0396 19.1511 14.3175C16.9412 10.3667 18.1589 5.83487 22.1359 1.02917C22.3697 0.726631 22.6614 0.47482 22.9934 0.288726C23.3254 0.102631 23.691 -0.0139412 24.0685 -0.0540517C24.4459 -0.0941622 24.8275 -0.0569907 25.1904 0.0552498C25.5534 0.16749 25.8903 0.352505 26.1812 0.599279C26.472 0.846053 26.7109 1.14954 26.8834 1.49167C27.056 1.83381 27.1588 2.20759 27.1857 2.59077C27.2126 2.97396 27.1631 3.3587 27.0401 3.7221C26.917 4.0855 26.723 4.42013 26.4696 4.70607C23.8374 7.88082 23.2593 10.0471 24.0711 11.4996C24.3212 11.952 26.5024 15.4338 27.0026 16.5087C28.1301 18.9364 28.2818 21.2895 27.3019 24.07C26.5854 26.0667 25.5463 27.9291 24.2269 29.5812H27.7447C27.9023 29.3151 28.1018 29.0769 28.3351 28.8757C30.832 26.726 32.4638 24.485 33.2838 22.1485C33.7512 20.8205 33.702 20.032 33.1936 18.9489C32.8738 18.26 30.8607 15.0396 30.4589 14.3175C28.249 10.3667 29.4667 5.83487 33.4478 1.02917C33.6796 0.720892 33.9709 0.463453 34.3039 0.272439C34.637 0.0814242 35.0048 -0.039193 35.3853 -0.0821103C35.7657 -0.125028 36.1508 -0.0893521 36.5172 0.0227561C36.8836 0.134864 37.2237 0.321073 37.517 0.570109C37.8102 0.819145 38.0505 1.12583 38.2232 1.47159C38.396 1.81735 38.4976 2.195 38.5219 2.58167C38.5463 2.96834 38.4928 3.35599 38.3648 3.72114C38.2369 4.0863 38.037 4.42137 37.7774 4.70607C35.1493 7.88082 34.5671 10.0471 35.3789 11.4996C35.6331 11.952 37.8102 15.4338 38.3104 16.5087C39.442 18.9364 39.5896 21.2895 38.6097 24.07C37.8932 26.0667 36.8541 27.9291 35.5347 29.5812H39.0566C39.213 29.3154 39.411 29.0772 39.6429 28.8757C42.1439 26.726 43.7716 24.485 44.5916 22.1485C45.059 20.8205 45.0098 20.032 44.5014 18.9489C44.1816 18.26 42.1726 15.0396 41.7667 14.3175C39.5609 10.3667 40.7745 5.83487 44.7556 1.02917C45.2372 0.448161 45.9268 0.0842768 46.6732 0.0173662C47.4196 -0.0495444 48.1617 0.185984 48.7367 0.672268M67.8632 38.4788V55.6515C70.113 55.6515 72.2706 54.7468 73.8615 53.1366C75.4523 51.5263 76.3461 49.3424 76.3461 47.0651C76.3461 44.7879 75.4523 42.6039 73.8615 40.9937C72.2706 39.3834 70.113 38.4788 67.8632 38.4788Z" fill="#E1BA20"/>
</g>
<defs>
<clipPath id="clip0_16_60">
<rect width="82" height="83" fill="white"/>
</clipPath>
</defs>
</svg>
