<svg width="71" height="53" viewBox="0 0 71 53" fill="none" xmlns="http://www.w3.org/2000/svg">
<path d="M35.5 42.0625C36.8758 42.0625 38.1952 42.6091 39.1681 43.5819C40.1409 44.5548 40.6875 45.8742 40.6875 47.25C40.6875 48.6258 40.1409 49.9453 39.1681 50.9181C38.1952 51.891 36.8758 52.4375 35.5 52.4375C34.1242 52.4375 32.8047 51.891 31.8319 50.9181C30.859 49.9453 30.3125 48.6258 30.3125 47.25C30.3125 45.8742 30.859 44.5548 31.8319 43.5819C32.8047 42.6091 34.1242 42.0625 35.5 42.0625ZM35.5 28.2292C37.9978 28.2269 40.4716 28.7176 42.7795 29.673C45.0874 30.6285 47.1841 32.0299 48.9494 33.7971C49.894 34.7364 50.441 36.0031 50.4771 37.3347C50.5132 38.6663 50.0357 39.9608 49.1434 40.9499C48.2512 41.9391 47.0127 42.5471 45.6844 42.648C44.3561 42.7489 43.04 42.3349 42.0086 41.4919L41.6143 41.1357C40.8127 40.3311 39.8597 39.6931 38.8102 39.2586C37.7608 38.8241 36.6358 38.6017 35.5 38.6042C33.3489 38.6042 31.388 39.3823 29.8733 40.6827L29.3891 41.1357C28.4164 42.1089 27.097 42.6557 25.721 42.6561C24.3451 42.6564 23.0254 42.1101 22.0522 41.1374C21.0791 40.1647 20.5322 38.8453 20.5319 37.4694C20.5315 36.0934 21.0778 34.7737 22.0505 33.8006C23.8153 32.0325 25.9119 30.6302 28.2198 29.6741C30.5278 28.718 33.0018 28.227 35.5 28.2292ZM35.5 14.3959C44.5712 14.3959 52.7916 18.079 58.7296 24.0204C59.2393 24.4953 59.648 25.068 59.9316 25.7043C60.2151 26.3407 60.3676 27.0276 60.3798 27.7241C60.3921 28.4207 60.264 29.1125 60.0031 29.7585C59.7422 30.4044 59.3539 30.9912 58.8613 31.4838C58.3687 31.9763 57.7819 32.3647 57.136 32.6256C56.49 32.8865 55.7982 33.0146 55.1016 33.0023C54.4051 32.99 53.7182 32.8376 53.0819 32.5541C52.4455 32.2705 51.8728 31.8617 51.3979 31.3521C49.3128 29.261 46.8347 27.603 44.1063 26.4736C41.3778 25.3441 38.4529 24.7654 35.5 24.7709C32.5473 24.7663 29.6229 25.3457 26.8951 26.4758C24.1673 27.6059 21.6899 29.2643 19.6055 31.3555C18.6328 32.3287 17.3133 32.8756 15.9374 32.8759C14.5615 32.8762 13.2418 32.33 12.2686 31.3573C11.2955 30.3846 10.7486 29.0651 10.7482 27.6892C10.7479 26.3133 11.2942 24.9936 12.2669 24.0204C15.3149 20.9653 18.9364 18.5423 22.9234 16.8906C26.9104 15.239 31.1844 14.3912 35.5 14.3959ZM35.5 0.562528C48.3892 0.562528 60.0714 5.79499 68.5132 14.2368C68.9948 14.7186 69.3769 15.2906 69.6374 15.9201C69.898 16.5496 70.032 17.2243 70.0319 17.9056C70.0317 18.5869 69.8974 19.2614 69.6365 19.8908C69.3756 20.5202 68.9933 21.092 68.5115 21.5736C68.0296 22.0553 67.4576 22.4373 66.8281 22.6978C66.1986 22.9584 65.524 23.0924 64.8427 23.0923C64.1614 23.0921 63.4868 22.9578 62.8575 22.6969C62.2281 22.436 61.6563 22.0538 61.1746 21.5719C57.8072 18.1946 53.8052 15.5165 49.399 13.6914C44.9928 11.8664 40.2692 10.9305 35.5 10.9375C25.4708 10.9375 16.3996 14.9976 9.82184 21.5719C9.3455 22.0757 8.77298 22.479 8.13812 22.7578C7.50327 23.0366 6.81897 23.1853 6.12566 23.1951C5.43236 23.2049 4.74412 23.0756 4.10164 22.8149C3.45915 22.5541 2.87546 22.1672 2.38506 21.6771C1.89465 21.1869 1.50749 20.6034 1.24646 19.961C0.985422 19.3187 0.855814 18.6305 0.865292 17.9372C0.87477 17.2439 1.02314 16.5595 1.30164 15.9245C1.58013 15.2895 1.9831 14.7168 2.48672 14.2402C6.81749 9.89847 11.9634 6.45507 17.6288 4.10783C23.2942 1.76059 29.3676 0.555757 35.5 0.562528Z" fill="#E1BA20"/>
</svg>
